<mxfile host="app.diagrams.net" modified="2022-07-15T09:58:07.552Z" agent="5.0 (Macintosh; Intel Mac OS X 10_15_7) AppleWebKit/537.36 (KHTML, like Gecko) Chrome/103.0.0.0 Safari/537.36" etag="8qH75hlyces6ZwFpdcr3" version="20.1.1" type="github">
  <diagram id="AZgkyws2W7R_N9yS9WG-" name="Common Architecture">
    <mxGraphModel dx="1238" dy="723" grid="1" gridSize="10" guides="1" tooltips="1" connect="1" arrows="1" fold="1" page="1" pageScale="1" pageWidth="1169" pageHeight="827" math="0" shadow="0">
      <root>
        <mxCell id="0" />
        <mxCell id="1" parent="0" />
        <mxCell id="N06IJC54E89xGtOMu8dl-19" style="edgeStyle=orthogonalEdgeStyle;rounded=0;orthogonalLoop=1;jettySize=auto;html=1;startArrow=none;startFill=0;endArrow=classic;endFill=1;" parent="1" source="N06IJC54E89xGtOMu8dl-1" target="N06IJC54E89xGtOMu8dl-18" edge="1">
          <mxGeometry relative="1" as="geometry" />
        </mxCell>
        <mxCell id="N06IJC54E89xGtOMu8dl-1" value="Amazon Route 53" style="sketch=0;outlineConnect=0;fontColor=#232F3E;gradientColor=none;strokeColor=#ffffff;fillColor=#232F3E;dashed=0;verticalLabelPosition=middle;verticalAlign=bottom;align=center;html=1;whiteSpace=wrap;fontSize=10;fontStyle=1;spacing=3;shape=mxgraph.aws4.productIcon;prIcon=mxgraph.aws4.route_53;" parent="1" vertex="1">
          <mxGeometry x="20" y="210" width="50" height="80" as="geometry" />
        </mxCell>
        <mxCell id="N06IJC54E89xGtOMu8dl-15" value="Region" style="points=[[0,0],[0.25,0],[0.5,0],[0.75,0],[1,0],[1,0.25],[1,0.5],[1,0.75],[1,1],[0.75,1],[0.5,1],[0.25,1],[0,1],[0,0.75],[0,0.5],[0,0.25]];outlineConnect=0;gradientColor=none;html=1;whiteSpace=wrap;fontSize=12;fontStyle=0;container=1;pointerEvents=0;collapsible=0;recursiveResize=0;shape=mxgraph.aws4.group;grIcon=mxgraph.aws4.group_region;strokeColor=#147EBA;fillColor=none;verticalAlign=top;align=left;spacingLeft=30;fontColor=#147EBA;dashed=1;" parent="1" vertex="1">
          <mxGeometry x="90" y="40" width="1060" height="760" as="geometry" />
        </mxCell>
        <mxCell id="N06IJC54E89xGtOMu8dl-4" value="VPC" style="points=[[0,0],[0.25,0],[0.5,0],[0.75,0],[1,0],[1,0.25],[1,0.5],[1,0.75],[1,1],[0.75,1],[0.5,1],[0.25,1],[0,1],[0,0.75],[0,0.5],[0,0.25]];outlineConnect=0;gradientColor=none;html=1;whiteSpace=wrap;fontSize=12;fontStyle=0;container=1;pointerEvents=0;collapsible=0;recursiveResize=0;shape=mxgraph.aws4.group;grIcon=mxgraph.aws4.group_vpc;strokeColor=#248814;fillColor=none;verticalAlign=top;align=left;spacingLeft=30;fontColor=#AAB7B8;dashed=0;" parent="N06IJC54E89xGtOMu8dl-15" vertex="1">
          <mxGeometry x="60" y="60" width="960" height="660" as="geometry" />
        </mxCell>
        <mxCell id="N06IJC54E89xGtOMu8dl-42" value="Availability Zone" style="fillColor=none;strokeColor=#147EBA;dashed=1;verticalAlign=top;fontStyle=0;fontColor=#147EBA;" parent="N06IJC54E89xGtOMu8dl-4" vertex="1">
          <mxGeometry x="50" y="40" width="890" height="200" as="geometry" />
        </mxCell>
        <mxCell id="N06IJC54E89xGtOMu8dl-95" value="Private subnet(App)" style="points=[[0,0],[0.25,0],[0.5,0],[0.75,0],[1,0],[1,0.25],[1,0.5],[1,0.75],[1,1],[0.75,1],[0.5,1],[0.25,1],[0,1],[0,0.75],[0,0.5],[0,0.25]];outlineConnect=0;gradientColor=none;html=1;whiteSpace=wrap;fontSize=12;fontStyle=0;container=1;pointerEvents=0;collapsible=0;recursiveResize=0;shape=mxgraph.aws4.group;grIcon=mxgraph.aws4.group_security_group;grStroke=0;strokeColor=#147EBA;fillColor=#E6F2F8;verticalAlign=top;align=left;spacingLeft=30;fontColor=#147EBA;dashed=0;" parent="N06IJC54E89xGtOMu8dl-4" vertex="1">
          <mxGeometry x="371" y="392" width="210" height="156" as="geometry" />
        </mxCell>
        <mxCell id="N06IJC54E89xGtOMu8dl-96" value="상품" style="text;html=1;align=center;verticalAlign=middle;resizable=0;points=[];autosize=1;strokeColor=none;fillColor=none;fontSize=10;" parent="N06IJC54E89xGtOMu8dl-95" vertex="1">
          <mxGeometry x="30" y="30" width="40" height="30" as="geometry" />
        </mxCell>
        <mxCell id="N06IJC54E89xGtOMu8dl-97" value="결제" style="text;html=1;align=center;verticalAlign=middle;resizable=0;points=[];autosize=1;strokeColor=none;fillColor=none;fontSize=10;" parent="N06IJC54E89xGtOMu8dl-95" vertex="1">
          <mxGeometry x="85" y="30" width="40" height="30" as="geometry" />
        </mxCell>
        <mxCell id="N06IJC54E89xGtOMu8dl-99" value="" style="sketch=0;points=[[0,0,0],[0.25,0,0],[0.5,0,0],[0.75,0,0],[1,0,0],[0,1,0],[0.25,1,0],[0.5,1,0],[0.75,1,0],[1,1,0],[0,0.25,0],[0,0.5,0],[0,0.75,0],[1,0.25,0],[1,0.5,0],[1,0.75,0]];outlineConnect=0;fontColor=#232F3E;gradientColor=#F78E04;gradientDirection=north;fillColor=#D05C17;strokeColor=#ffffff;dashed=0;verticalLabelPosition=bottom;verticalAlign=top;align=center;html=1;fontSize=12;fontStyle=0;aspect=fixed;shape=mxgraph.aws4.resourceIcon;resIcon=mxgraph.aws4.ec2;" parent="N06IJC54E89xGtOMu8dl-95" vertex="1">
          <mxGeometry x="87" y="55" width="40" height="40" as="geometry" />
        </mxCell>
        <mxCell id="N06IJC54E89xGtOMu8dl-6" value="Public subnet" style="points=[[0,0],[0.25,0],[0.5,0],[0.75,0],[1,0],[1,0.25],[1,0.5],[1,0.75],[1,1],[0.75,1],[0.5,1],[0.25,1],[0,1],[0,0.75],[0,0.5],[0,0.25]];outlineConnect=0;gradientColor=none;html=1;whiteSpace=wrap;fontSize=12;fontStyle=0;container=1;pointerEvents=0;collapsible=0;recursiveResize=0;shape=mxgraph.aws4.group;grIcon=mxgraph.aws4.group_security_group;grStroke=0;strokeColor=#248814;fillColor=#E9F3E6;verticalAlign=top;align=left;spacingLeft=30;fontColor=#248814;dashed=0;flipH=0;flipV=0;" parent="N06IJC54E89xGtOMu8dl-4" vertex="1">
          <mxGeometry x="80" y="66" width="220" height="160" as="geometry" />
        </mxCell>
        <mxCell id="N06IJC54E89xGtOMu8dl-7" value="Private subnet(DB)" style="points=[[0,0],[0.25,0],[0.5,0],[0.75,0],[1,0],[1,0.25],[1,0.5],[1,0.75],[1,1],[0.75,1],[0.5,1],[0.25,1],[0,1],[0,0.75],[0,0.5],[0,0.25]];outlineConnect=0;gradientColor=none;html=1;whiteSpace=wrap;fontSize=12;fontStyle=0;container=1;pointerEvents=0;collapsible=0;recursiveResize=0;shape=mxgraph.aws4.group;grIcon=mxgraph.aws4.group_security_group;grStroke=0;strokeColor=#147EBA;fillColor=#E6F2F8;verticalAlign=top;align=left;spacingLeft=30;fontColor=#147EBA;dashed=0;" parent="N06IJC54E89xGtOMu8dl-4" vertex="1">
          <mxGeometry x="644" y="70" width="276" height="156" as="geometry" />
        </mxCell>
        <mxCell id="N06IJC54E89xGtOMu8dl-32" value="Private subnet(App)" style="points=[[0,0],[0.25,0],[0.5,0],[0.75,0],[1,0],[1,0.25],[1,0.5],[1,0.75],[1,1],[0.75,1],[0.5,1],[0.25,1],[0,1],[0,0.75],[0,0.5],[0,0.25]];outlineConnect=0;gradientColor=none;html=1;whiteSpace=wrap;fontSize=12;fontStyle=0;container=1;pointerEvents=0;collapsible=0;recursiveResize=0;shape=mxgraph.aws4.group;grIcon=mxgraph.aws4.group_security_group;grStroke=0;strokeColor=#147EBA;fillColor=#E6F2F8;verticalAlign=top;align=left;spacingLeft=30;fontColor=#147EBA;dashed=0;" parent="N06IJC54E89xGtOMu8dl-4" vertex="1">
          <mxGeometry x="370" y="70" width="210" height="160" as="geometry" />
        </mxCell>
        <mxCell id="N06IJC54E89xGtOMu8dl-90" value="결제" style="text;html=1;align=center;verticalAlign=middle;resizable=0;points=[];autosize=1;strokeColor=none;fillColor=none;fontSize=10;" parent="N06IJC54E89xGtOMu8dl-32" vertex="1">
          <mxGeometry x="90" y="89" width="40" height="30" as="geometry" />
        </mxCell>
        <mxCell id="N06IJC54E89xGtOMu8dl-103" value="Auto Scaling group" style="points=[[0,0],[0.25,0],[0.5,0],[0.75,0],[1,0],[1,0.25],[1,0.5],[1,0.75],[1,1],[0.75,1],[0.5,1],[0.25,1],[0,1],[0,0.75],[0,0.5],[0,0.25]];outlineConnect=0;gradientColor=none;html=1;whiteSpace=wrap;fontSize=12;fontStyle=0;container=1;pointerEvents=0;collapsible=0;recursiveResize=0;shape=mxgraph.aws4.groupCenter;grIcon=mxgraph.aws4.group_auto_scaling_group;grStroke=1;strokeColor=#D86613;fillColor=none;verticalAlign=middle;align=center;fontColor=#D86613;dashed=1;spacingTop=25;flipV=0;flipH=1;" parent="N06IJC54E89xGtOMu8dl-32" vertex="1">
          <mxGeometry x="10" y="40" width="190" height="400" as="geometry" />
        </mxCell>
        <mxCell id="N06IJC54E89xGtOMu8dl-35" value="" style="sketch=0;points=[[0,0,0],[0.25,0,0],[0.5,0,0],[0.75,0,0],[1,0,0],[0,1,0],[0.25,1,0],[0.5,1,0],[0.75,1,0],[1,1,0],[0,0.25,0],[0,0.5,0],[0,0.75,0],[1,0.25,0],[1,0.5,0],[1,0.75,0]];outlineConnect=0;fontColor=#232F3E;gradientColor=#F78E04;gradientDirection=north;fillColor=#D05C17;strokeColor=#ffffff;dashed=0;verticalLabelPosition=bottom;verticalAlign=top;align=center;html=1;fontSize=12;fontStyle=0;aspect=fixed;shape=mxgraph.aws4.resourceIcon;resIcon=mxgraph.aws4.ec2;" parent="N06IJC54E89xGtOMu8dl-103" vertex="1">
          <mxGeometry x="20.5" y="70" width="40" height="40" as="geometry" />
        </mxCell>
        <mxCell id="N06IJC54E89xGtOMu8dl-89" value="" style="sketch=0;points=[[0,0,0],[0.25,0,0],[0.5,0,0],[0.75,0,0],[1,0,0],[0,1,0],[0.25,1,0],[0.5,1,0],[0.75,1,0],[1,1,0],[0,0.25,0],[0,0.5,0],[0,0.75,0],[1,0.25,0],[1,0.5,0],[1,0.75,0]];outlineConnect=0;fontColor=#232F3E;gradientColor=#F78E04;gradientDirection=north;fillColor=#D05C17;strokeColor=#ffffff;dashed=0;verticalLabelPosition=bottom;verticalAlign=top;align=center;html=1;fontSize=12;fontStyle=0;aspect=fixed;shape=mxgraph.aws4.resourceIcon;resIcon=mxgraph.aws4.ec2;" parent="N06IJC54E89xGtOMu8dl-103" vertex="1">
          <mxGeometry x="137.5" y="70" width="40" height="40" as="geometry" />
        </mxCell>
        <mxCell id="N06IJC54E89xGtOMu8dl-43" value="Availability Zone" style="fillColor=none;strokeColor=#147EBA;dashed=1;verticalAlign=top;fontStyle=0;fontColor=#147EBA;" parent="N06IJC54E89xGtOMu8dl-4" vertex="1">
          <mxGeometry x="50" y="363" width="890" height="200" as="geometry" />
        </mxCell>
        <mxCell id="N06IJC54E89xGtOMu8dl-44" value="Public subnet" style="points=[[0,0],[0.25,0],[0.5,0],[0.75,0],[1,0],[1,0.25],[1,0.5],[1,0.75],[1,1],[0.75,1],[0.5,1],[0.25,1],[0,1],[0,0.75],[0,0.5],[0,0.25]];outlineConnect=0;gradientColor=none;html=1;whiteSpace=wrap;fontSize=12;fontStyle=0;container=1;pointerEvents=0;collapsible=0;recursiveResize=0;shape=mxgraph.aws4.group;grIcon=mxgraph.aws4.group_security_group;grStroke=0;strokeColor=#248814;fillColor=#E9F3E6;verticalAlign=top;align=left;spacingLeft=30;fontColor=#248814;dashed=0;flipH=0;flipV=0;" parent="N06IJC54E89xGtOMu8dl-4" vertex="1">
          <mxGeometry x="80" y="392" width="220" height="158" as="geometry" />
        </mxCell>
        <mxCell id="N06IJC54E89xGtOMu8dl-45" value="Private subnet(DB)" style="points=[[0,0],[0.25,0],[0.5,0],[0.75,0],[1,0],[1,0.25],[1,0.5],[1,0.75],[1,1],[0.75,1],[0.5,1],[0.25,1],[0,1],[0,0.75],[0,0.5],[0,0.25]];outlineConnect=0;gradientColor=none;html=1;whiteSpace=wrap;fontSize=12;fontStyle=0;container=1;pointerEvents=0;collapsible=0;recursiveResize=0;shape=mxgraph.aws4.group;grIcon=mxgraph.aws4.group_security_group;grStroke=0;strokeColor=#147EBA;fillColor=#E6F2F8;verticalAlign=top;align=left;spacingLeft=30;fontColor=#147EBA;dashed=0;" parent="N06IJC54E89xGtOMu8dl-4" vertex="1">
          <mxGeometry x="644" y="392" width="276" height="156" as="geometry" />
        </mxCell>
        <mxCell id="N06IJC54E89xGtOMu8dl-47" value="" style="dashed=0;outlineConnect=0;html=1;align=center;labelPosition=center;verticalLabelPosition=bottom;verticalAlign=top;shape=mxgraph.webicons.mongodb;gradientColor=#DFDEDE" parent="N06IJC54E89xGtOMu8dl-45" vertex="1">
          <mxGeometry x="211" y="90" width="40" height="40" as="geometry" />
        </mxCell>
        <mxCell id="KhF0lmoxoPOz-8fGIzww-6" value="" style="outlineConnect=0;dashed=0;verticalLabelPosition=bottom;verticalAlign=top;align=center;html=1;shape=mxgraph.aws3.elasticache;fillColor=#2E73B8;gradientColor=none;" vertex="1" parent="N06IJC54E89xGtOMu8dl-45">
          <mxGeometry x="36" y="48" width="40" height="42" as="geometry" />
        </mxCell>
        <mxCell id="KhF0lmoxoPOz-8fGIzww-13" value="Elastic Cache" style="text;html=1;align=center;verticalAlign=middle;resizable=0;points=[];autosize=1;strokeColor=none;fillColor=none;fontSize=10;" vertex="1" parent="N06IJC54E89xGtOMu8dl-45">
          <mxGeometry x="16" y="90" width="80" height="30" as="geometry" />
        </mxCell>
        <mxCell id="KhF0lmoxoPOz-8fGIzww-16" style="edgeStyle=orthogonalEdgeStyle;rounded=0;orthogonalLoop=1;jettySize=auto;html=1;" edge="1" parent="N06IJC54E89xGtOMu8dl-4" source="N06IJC54E89xGtOMu8dl-50">
          <mxGeometry relative="1" as="geometry">
            <mxPoint x="390" y="210" as="targetPoint" />
            <Array as="points">
              <mxPoint x="330" y="280" />
              <mxPoint x="330" y="210" />
            </Array>
          </mxGeometry>
        </mxCell>
        <mxCell id="KhF0lmoxoPOz-8fGIzww-17" style="edgeStyle=orthogonalEdgeStyle;rounded=0;orthogonalLoop=1;jettySize=auto;html=1;entryX=0;entryY=0.5;entryDx=0;entryDy=0;entryPerimeter=0;" edge="1" parent="N06IJC54E89xGtOMu8dl-4" source="N06IJC54E89xGtOMu8dl-50" target="N06IJC54E89xGtOMu8dl-101">
          <mxGeometry relative="1" as="geometry">
            <Array as="points">
              <mxPoint x="330" y="280" />
              <mxPoint x="330" y="467" />
            </Array>
          </mxGeometry>
        </mxCell>
        <mxCell id="N06IJC54E89xGtOMu8dl-50" value="" style="sketch=0;outlineConnect=0;fontColor=#232F3E;gradientColor=none;fillColor=#4D27AA;strokeColor=none;dashed=0;verticalLabelPosition=bottom;verticalAlign=top;align=center;html=1;fontSize=12;fontStyle=0;aspect=fixed;pointerEvents=1;shape=mxgraph.aws4.application_load_balancer;" parent="N06IJC54E89xGtOMu8dl-4" vertex="1">
          <mxGeometry x="102" y="250" width="60" height="60" as="geometry" />
        </mxCell>
        <mxCell id="N06IJC54E89xGtOMu8dl-52" value="Auto Scaling group" style="points=[[0,0],[0.25,0],[0.5,0],[0.75,0],[1,0],[1,0.25],[1,0.5],[1,0.75],[1,1],[0.75,1],[0.5,1],[0.25,1],[0,1],[0,0.75],[0,0.5],[0,0.25]];outlineConnect=0;gradientColor=none;html=1;whiteSpace=wrap;fontSize=12;fontStyle=0;container=1;pointerEvents=0;collapsible=0;recursiveResize=0;shape=mxgraph.aws4.groupCenter;grIcon=mxgraph.aws4.group_auto_scaling_group;grStroke=1;strokeColor=#D86613;fillColor=none;verticalAlign=middle;align=center;fontColor=#D86613;dashed=1;spacingTop=25;flipV=0;flipH=1;" parent="N06IJC54E89xGtOMu8dl-4" vertex="1">
          <mxGeometry x="170" y="119" width="105" height="391" as="geometry" />
        </mxCell>
        <mxCell id="N06IJC54E89xGtOMu8dl-106" value="Bastion" style="text;html=1;align=center;verticalAlign=middle;resizable=0;points=[];autosize=1;strokeColor=none;fillColor=none;fontSize=10;" parent="N06IJC54E89xGtOMu8dl-52" vertex="1">
          <mxGeometry x="22.5" y="333" width="60" height="30" as="geometry" />
        </mxCell>
        <mxCell id="N06IJC54E89xGtOMu8dl-107" value="" style="sketch=0;points=[[0,0,0],[0.25,0,0],[0.5,0,0],[0.75,0,0],[1,0,0],[0,1,0],[0.25,1,0],[0.5,1,0],[0.75,1,0],[1,1,0],[0,0.25,0],[0,0.5,0],[0,0.75,0],[1,0.25,0],[1,0.5,0],[1,0.75,0]];outlineConnect=0;fontColor=#232F3E;gradientColor=#F78E04;gradientDirection=north;fillColor=#D05C17;strokeColor=#ffffff;dashed=0;verticalLabelPosition=bottom;verticalAlign=top;align=center;html=1;fontSize=12;fontStyle=0;aspect=fixed;shape=mxgraph.aws4.resourceIcon;resIcon=mxgraph.aws4.ec2;" parent="N06IJC54E89xGtOMu8dl-52" vertex="1">
          <mxGeometry x="31" y="296" width="43" height="43" as="geometry" />
        </mxCell>
        <mxCell id="N06IJC54E89xGtOMu8dl-58" value="Application&lt;br&gt;Load Balancer" style="text;html=1;align=center;verticalAlign=middle;resizable=0;points=[];autosize=1;strokeColor=none;fillColor=none;fontSize=10;" parent="N06IJC54E89xGtOMu8dl-4" vertex="1">
          <mxGeometry x="87" y="306" width="90" height="40" as="geometry" />
        </mxCell>
        <mxCell id="N06IJC54E89xGtOMu8dl-91" value="주문" style="text;html=1;align=center;verticalAlign=middle;resizable=0;points=[];autosize=1;strokeColor=none;fillColor=none;fontSize=10;" parent="N06IJC54E89xGtOMu8dl-4" vertex="1">
          <mxGeometry x="520" y="159" width="40" height="30" as="geometry" />
        </mxCell>
        <mxCell id="N06IJC54E89xGtOMu8dl-100" value="" style="sketch=0;points=[[0,0,0],[0.25,0,0],[0.5,0,0],[0.75,0,0],[1,0,0],[0,1,0],[0.25,1,0],[0.5,1,0],[0.75,1,0],[1,1,0],[0,0.25,0],[0,0.5,0],[0,0.75,0],[1,0.25,0],[1,0.5,0],[1,0.75,0]];outlineConnect=0;fontColor=#232F3E;gradientColor=#F78E04;gradientDirection=north;fillColor=#D05C17;strokeColor=#ffffff;dashed=0;verticalLabelPosition=bottom;verticalAlign=top;align=center;html=1;fontSize=12;fontStyle=0;aspect=fixed;shape=mxgraph.aws4.resourceIcon;resIcon=mxgraph.aws4.ec2;" parent="N06IJC54E89xGtOMu8dl-4" vertex="1">
          <mxGeometry x="523" y="442" width="40" height="40" as="geometry" />
        </mxCell>
        <mxCell id="N06IJC54E89xGtOMu8dl-101" value="" style="sketch=0;points=[[0,0,0],[0.25,0,0],[0.5,0,0],[0.75,0,0],[1,0,0],[0,1,0],[0.25,1,0],[0.5,1,0],[0.75,1,0],[1,1,0],[0,0.25,0],[0,0.5,0],[0,0.75,0],[1,0.25,0],[1,0.5,0],[1,0.75,0]];outlineConnect=0;fontColor=#232F3E;gradientColor=#F78E04;gradientDirection=north;fillColor=#D05C17;strokeColor=#ffffff;dashed=0;verticalLabelPosition=bottom;verticalAlign=top;align=center;html=1;fontSize=12;fontStyle=0;aspect=fixed;shape=mxgraph.aws4.resourceIcon;resIcon=mxgraph.aws4.ec2;" parent="N06IJC54E89xGtOMu8dl-4" vertex="1">
          <mxGeometry x="402" y="447" width="40" height="40" as="geometry" />
        </mxCell>
        <mxCell id="N06IJC54E89xGtOMu8dl-102" value="주문" style="text;html=1;align=center;verticalAlign=middle;resizable=0;points=[];autosize=1;strokeColor=none;fillColor=none;fontSize=10;" parent="N06IJC54E89xGtOMu8dl-4" vertex="1">
          <mxGeometry x="523" y="421" width="40" height="30" as="geometry" />
        </mxCell>
        <mxCell id="N06IJC54E89xGtOMu8dl-60" value="" style="sketch=0;points=[[0,0,0],[0.25,0,0],[0.5,0,0],[0.75,0,0],[1,0,0],[0,1,0],[0.25,1,0],[0.5,1,0],[0.75,1,0],[1,1,0],[0,0.25,0],[0,0.5,0],[0,0.75,0],[1,0.25,0],[1,0.5,0],[1,0.75,0]];outlineConnect=0;fontColor=#232F3E;gradientColor=#F78E04;gradientDirection=north;fillColor=#D05C17;strokeColor=#ffffff;dashed=0;verticalLabelPosition=bottom;verticalAlign=top;align=center;html=1;fontSize=12;fontStyle=0;aspect=fixed;shape=mxgraph.aws4.resourceIcon;resIcon=mxgraph.aws4.ec2;" parent="N06IJC54E89xGtOMu8dl-4" vertex="1">
          <mxGeometry x="460" y="182" width="40" height="40" as="geometry" />
        </mxCell>
        <mxCell id="N06IJC54E89xGtOMu8dl-59" value="상품" style="text;html=1;align=center;verticalAlign=middle;resizable=0;points=[];autosize=1;strokeColor=none;fillColor=none;fontSize=10;" parent="N06IJC54E89xGtOMu8dl-4" vertex="1">
          <mxGeometry x="405" y="159" width="40" height="30" as="geometry" />
        </mxCell>
        <mxCell id="N06IJC54E89xGtOMu8dl-56" value="Bastion" style="text;html=1;align=center;verticalAlign=middle;resizable=0;points=[];autosize=1;strokeColor=none;fillColor=none;fontSize=10;" parent="N06IJC54E89xGtOMu8dl-4" vertex="1">
          <mxGeometry x="192.5" y="196" width="60" height="30" as="geometry" />
        </mxCell>
        <mxCell id="N06IJC54E89xGtOMu8dl-55" value="" style="sketch=0;points=[[0,0,0],[0.25,0,0],[0.5,0,0],[0.75,0,0],[1,0,0],[0,1,0],[0.25,1,0],[0.5,1,0],[0.75,1,0],[1,1,0],[0,0.25,0],[0,0.5,0],[0,0.75,0],[1,0.25,0],[1,0.5,0],[1,0.75,0]];outlineConnect=0;fontColor=#232F3E;gradientColor=#F78E04;gradientDirection=north;fillColor=#D05C17;strokeColor=#ffffff;dashed=0;verticalLabelPosition=bottom;verticalAlign=top;align=center;html=1;fontSize=12;fontStyle=0;aspect=fixed;shape=mxgraph.aws4.resourceIcon;resIcon=mxgraph.aws4.ec2;" parent="N06IJC54E89xGtOMu8dl-4" vertex="1">
          <mxGeometry x="201" y="159" width="43" height="43" as="geometry" />
        </mxCell>
        <mxCell id="KhF0lmoxoPOz-8fGIzww-1" value="" style="outlineConnect=0;dashed=0;verticalLabelPosition=bottom;verticalAlign=top;align=center;html=1;shape=mxgraph.aws3.efs;fillColor=#E05243;gradientColor=none;" vertex="1" parent="N06IJC54E89xGtOMu8dl-4">
          <mxGeometry x="784" y="262" width="50" height="56.5" as="geometry" />
        </mxCell>
        <mxCell id="N06IJC54E89xGtOMu8dl-10" value="" style="dashed=0;outlineConnect=0;html=1;align=center;labelPosition=center;verticalLabelPosition=bottom;verticalAlign=top;shape=mxgraph.webicons.mongodb;gradientColor=#DFDEDE" parent="N06IJC54E89xGtOMu8dl-4" vertex="1">
          <mxGeometry x="870" y="92" width="40" height="40" as="geometry" />
        </mxCell>
        <mxCell id="N06IJC54E89xGtOMu8dl-9" value="" style="sketch=0;points=[[0,0,0],[0.25,0,0],[0.5,0,0],[0.75,0,0],[1,0,0],[0,1,0],[0.25,1,0],[0.5,1,0],[0.75,1,0],[1,1,0],[0,0.25,0],[0,0.5,0],[0,0.75,0],[1,0.25,0],[1,0.5,0],[1,0.75,0]];outlineConnect=0;fontColor=#232F3E;gradientColor=#4D72F3;gradientDirection=north;fillColor=#3334B9;strokeColor=#ffffff;dashed=0;verticalLabelPosition=bottom;verticalAlign=top;align=center;html=1;fontSize=12;fontStyle=0;aspect=fixed;shape=mxgraph.aws4.resourceIcon;resIcon=mxgraph.aws4.aurora;" parent="N06IJC54E89xGtOMu8dl-4" vertex="1">
          <mxGeometry x="760" y="119" width="38" height="38" as="geometry" />
        </mxCell>
        <mxCell id="KhF0lmoxoPOz-8fGIzww-5" style="edgeStyle=orthogonalEdgeStyle;rounded=0;orthogonalLoop=1;jettySize=auto;html=1;" edge="1" parent="N06IJC54E89xGtOMu8dl-4" source="KhF0lmoxoPOz-8fGIzww-4" target="KhF0lmoxoPOz-8fGIzww-1">
          <mxGeometry relative="1" as="geometry">
            <Array as="points">
              <mxPoint x="880" y="290" />
            </Array>
          </mxGeometry>
        </mxCell>
        <mxCell id="KhF0lmoxoPOz-8fGIzww-4" value="" style="sketch=0;outlineConnect=0;fontColor=#232F3E;gradientColor=none;fillColor=#3F8624;strokeColor=none;dashed=0;verticalLabelPosition=bottom;verticalAlign=top;align=center;html=1;fontSize=12;fontStyle=0;aspect=fixed;pointerEvents=1;shape=mxgraph.aws4.elastic_file_system_infrequent_access;" vertex="1" parent="N06IJC54E89xGtOMu8dl-4">
          <mxGeometry x="856" y="164.97" width="38" height="37.03" as="geometry" />
        </mxCell>
        <mxCell id="KhF0lmoxoPOz-8fGIzww-10" value="Amazon EFS" style="text;html=1;align=center;verticalAlign=middle;resizable=0;points=[];autosize=1;strokeColor=none;fillColor=none;fontSize=10;" vertex="1" parent="N06IJC54E89xGtOMu8dl-4">
          <mxGeometry x="769" y="315" width="80" height="30" as="geometry" />
        </mxCell>
        <mxCell id="KhF0lmoxoPOz-8fGIzww-12" value="EFS Mount" style="text;html=1;align=center;verticalAlign=middle;resizable=0;points=[];autosize=1;strokeColor=none;fillColor=none;fontSize=10;" vertex="1" parent="N06IJC54E89xGtOMu8dl-4">
          <mxGeometry x="843.1" y="442" width="70" height="30" as="geometry" />
        </mxCell>
        <mxCell id="KhF0lmoxoPOz-8fGIzww-14" value="EFS Mount" style="text;html=1;align=center;verticalAlign=middle;resizable=0;points=[];autosize=1;strokeColor=none;fillColor=none;fontSize=10;" vertex="1" parent="N06IJC54E89xGtOMu8dl-4">
          <mxGeometry x="840" y="196" width="70" height="30" as="geometry" />
        </mxCell>
        <mxCell id="KhF0lmoxoPOz-8fGIzww-18" value="Aurora&lt;br&gt;Slave" style="text;html=1;align=center;verticalAlign=middle;resizable=0;points=[];autosize=1;strokeColor=none;fillColor=none;fontSize=10;" vertex="1" parent="N06IJC54E89xGtOMu8dl-4">
          <mxGeometry x="763" y="482" width="50" height="40" as="geometry" />
        </mxCell>
        <mxCell id="KhF0lmoxoPOz-8fGIzww-20" style="edgeStyle=orthogonalEdgeStyle;rounded=0;orthogonalLoop=1;jettySize=auto;html=1;" edge="1" parent="N06IJC54E89xGtOMu8dl-4" source="KhF0lmoxoPOz-8fGIzww-8" target="KhF0lmoxoPOz-8fGIzww-1">
          <mxGeometry relative="1" as="geometry">
            <Array as="points">
              <mxPoint x="880" y="290" />
            </Array>
          </mxGeometry>
        </mxCell>
        <mxCell id="KhF0lmoxoPOz-8fGIzww-8" value="" style="sketch=0;outlineConnect=0;fontColor=#232F3E;gradientColor=none;fillColor=#3F8624;strokeColor=none;dashed=0;verticalLabelPosition=bottom;verticalAlign=top;align=center;html=1;fontSize=12;fontStyle=0;aspect=fixed;pointerEvents=1;shape=mxgraph.aws4.elastic_file_system_infrequent_access;" vertex="1" parent="N06IJC54E89xGtOMu8dl-4">
          <mxGeometry x="862.19" y="411" width="31.81" height="31" as="geometry" />
        </mxCell>
        <mxCell id="KhF0lmoxoPOz-8fGIzww-19" value="Aurora&lt;br&gt;Master" style="text;html=1;align=center;verticalAlign=middle;resizable=0;points=[];autosize=1;strokeColor=none;fillColor=none;fontSize=10;" vertex="1" parent="N06IJC54E89xGtOMu8dl-4">
          <mxGeometry x="757" y="149" width="50" height="40" as="geometry" />
        </mxCell>
        <mxCell id="N06IJC54E89xGtOMu8dl-46" value="" style="sketch=0;points=[[0,0,0],[0.25,0,0],[0.5,0,0],[0.75,0,0],[1,0,0],[0,1,0],[0.25,1,0],[0.5,1,0],[0.75,1,0],[1,1,0],[0,0.25,0],[0,0.5,0],[0,0.75,0],[1,0.25,0],[1,0.5,0],[1,0.75,0]];outlineConnect=0;fontColor=#232F3E;gradientColor=#4D72F3;gradientDirection=north;fillColor=#3334B9;strokeColor=#ffffff;dashed=0;verticalLabelPosition=bottom;verticalAlign=top;align=center;html=1;fontSize=12;fontStyle=0;aspect=fixed;shape=mxgraph.aws4.resourceIcon;resIcon=mxgraph.aws4.aurora;" parent="N06IJC54E89xGtOMu8dl-4" vertex="1">
          <mxGeometry x="769" y="451" width="38" height="38" as="geometry" />
        </mxCell>
        <mxCell id="KhF0lmoxoPOz-8fGIzww-23" style="edgeStyle=orthogonalEdgeStyle;rounded=0;orthogonalLoop=1;jettySize=auto;html=1;startArrow=classic;startFill=1;" edge="1" parent="N06IJC54E89xGtOMu8dl-4" source="KhF0lmoxoPOz-8fGIzww-3" target="N06IJC54E89xGtOMu8dl-103">
          <mxGeometry relative="1" as="geometry">
            <Array as="points">
              <mxPoint x="625" y="140" />
              <mxPoint x="625" y="190" />
            </Array>
          </mxGeometry>
        </mxCell>
        <mxCell id="KhF0lmoxoPOz-8fGIzww-3" value="" style="outlineConnect=0;dashed=0;verticalLabelPosition=bottom;verticalAlign=top;align=center;html=1;shape=mxgraph.aws3.elasticache;fillColor=#2E73B8;gradientColor=none;" vertex="1" parent="N06IJC54E89xGtOMu8dl-4">
          <mxGeometry x="680" y="119" width="40" height="42" as="geometry" />
        </mxCell>
        <mxCell id="KhF0lmoxoPOz-8fGIzww-11" value="Elastic Cache" style="text;html=1;align=center;verticalAlign=middle;resizable=0;points=[];autosize=1;strokeColor=none;fillColor=none;fontSize=10;" vertex="1" parent="N06IJC54E89xGtOMu8dl-4">
          <mxGeometry x="660" y="157" width="80" height="30" as="geometry" />
        </mxCell>
        <mxCell id="KhF0lmoxoPOz-8fGIzww-24" style="edgeStyle=orthogonalEdgeStyle;rounded=0;orthogonalLoop=1;jettySize=auto;html=1;startArrow=classic;startFill=1;" edge="1" parent="N06IJC54E89xGtOMu8dl-4" source="KhF0lmoxoPOz-8fGIzww-6" target="N06IJC54E89xGtOMu8dl-103">
          <mxGeometry relative="1" as="geometry">
            <Array as="points">
              <mxPoint x="625" y="461" />
              <mxPoint x="625" y="440" />
            </Array>
          </mxGeometry>
        </mxCell>
        <mxCell id="N06IJC54E89xGtOMu8dl-20" value="Amazon S3" style="sketch=0;outlineConnect=0;fontColor=#232F3E;gradientColor=none;strokeColor=#ffffff;fillColor=#232F3E;dashed=0;verticalLabelPosition=middle;verticalAlign=bottom;align=center;html=1;whiteSpace=wrap;fontSize=10;fontStyle=1;spacing=3;shape=mxgraph.aws4.productIcon;prIcon=mxgraph.aws4.s3;" parent="N06IJC54E89xGtOMu8dl-15" vertex="1">
          <mxGeometry x="10" y="430" width="50" height="85" as="geometry" />
        </mxCell>
        <mxCell id="N06IJC54E89xGtOMu8dl-51" style="edgeStyle=orthogonalEdgeStyle;rounded=0;orthogonalLoop=1;jettySize=auto;html=1;startArrow=none;startFill=0;endArrow=classic;endFill=1;" parent="N06IJC54E89xGtOMu8dl-15" source="N06IJC54E89xGtOMu8dl-22" target="N06IJC54E89xGtOMu8dl-50" edge="1">
          <mxGeometry relative="1" as="geometry" />
        </mxCell>
        <mxCell id="N06IJC54E89xGtOMu8dl-22" value="" style="sketch=0;outlineConnect=0;fontColor=#232F3E;gradientColor=none;fillColor=#4D27AA;strokeColor=none;dashed=0;verticalLabelPosition=bottom;verticalAlign=top;align=center;html=1;fontSize=12;fontStyle=0;aspect=fixed;pointerEvents=1;shape=mxgraph.aws4.internet_gateway;" parent="N06IJC54E89xGtOMu8dl-15" vertex="1">
          <mxGeometry x="40" y="290" width="60" height="60" as="geometry" />
        </mxCell>
        <mxCell id="N06IJC54E89xGtOMu8dl-53" value="" style="edgeStyle=orthogonalEdgeStyle;rounded=0;orthogonalLoop=1;jettySize=auto;html=1;startArrow=none;startFill=0;endArrow=classic;endFill=1;" parent="N06IJC54E89xGtOMu8dl-15" source="N06IJC54E89xGtOMu8dl-50" target="N06IJC54E89xGtOMu8dl-22" edge="1">
          <mxGeometry relative="1" as="geometry" />
        </mxCell>
        <mxCell id="N06IJC54E89xGtOMu8dl-57" value="Internet&lt;br&gt;Gateway" style="text;html=1;align=center;verticalAlign=middle;resizable=0;points=[];autosize=1;strokeColor=none;fillColor=none;fontSize=10;" parent="N06IJC54E89xGtOMu8dl-15" vertex="1">
          <mxGeometry x="40" y="346" width="60" height="40" as="geometry" />
        </mxCell>
        <mxCell id="N06IJC54E89xGtOMu8dl-17" style="edgeStyle=orthogonalEdgeStyle;rounded=0;orthogonalLoop=1;jettySize=auto;html=1;startArrow=none;startFill=0;endArrow=classic;endFill=1;" parent="1" source="N06IJC54E89xGtOMu8dl-16" target="N06IJC54E89xGtOMu8dl-1" edge="1">
          <mxGeometry relative="1" as="geometry" />
        </mxCell>
        <mxCell id="N06IJC54E89xGtOMu8dl-16" value="" style="sketch=0;pointerEvents=1;shadow=0;dashed=0;html=1;strokeColor=none;labelPosition=center;verticalLabelPosition=bottom;verticalAlign=top;align=center;fillColor=#505050;shape=mxgraph.mscae.intune.user_group" parent="1" vertex="1">
          <mxGeometry x="20" y="100" width="50" height="37" as="geometry" />
        </mxCell>
        <mxCell id="N06IJC54E89xGtOMu8dl-21" style="edgeStyle=orthogonalEdgeStyle;rounded=0;orthogonalLoop=1;jettySize=auto;html=1;startArrow=none;startFill=0;endArrow=classic;endFill=1;" parent="1" source="N06IJC54E89xGtOMu8dl-18" target="N06IJC54E89xGtOMu8dl-20" edge="1">
          <mxGeometry relative="1" as="geometry">
            <Array as="points">
              <mxPoint x="45" y="513" />
            </Array>
          </mxGeometry>
        </mxCell>
        <mxCell id="N06IJC54E89xGtOMu8dl-18" value="Amazon Cloudfront" style="sketch=0;outlineConnect=0;fontColor=#232F3E;gradientColor=none;strokeColor=#ffffff;fillColor=#232F3E;dashed=0;verticalLabelPosition=middle;verticalAlign=bottom;align=center;html=1;whiteSpace=wrap;fontSize=10;fontStyle=1;spacing=3;shape=mxgraph.aws4.productIcon;prIcon=mxgraph.aws4.cloudfront;" parent="1" vertex="1">
          <mxGeometry x="20" y="330" width="50" height="90" as="geometry" />
        </mxCell>
      </root>
    </mxGraphModel>
  </diagram>
</mxfile>
